<?xml version="1.0" standalone="no"?>
<!DOCTYPE svg PUBLIC "-//W3C//DTD SVG 20010904//EN"
 "http://www.w3.org/TR/2001/REC-SVG-20010904/DTD/svg10.dtd">
<svg version="1.0" xmlns="http://www.w3.org/2000/svg"
 width="665.000000pt" height="166.000000pt" viewBox="0 0 665.000000 166.000000"
 preserveAspectRatio="xMidYMid meet">
<metadata>
Created by potrace 1.16, written by Peter Selinger 2001-2019
</metadata>
<g transform="translate(0.000000,166.000000) scale(0.100000,-0.100000)"
fill="#000000" stroke="none">
<path d="M1084 1545 c-143 -31 -266 -98 -368 -201 -202 -204 -266 -485 -171
-757 35 -101 81 -172 165 -257 219 -219 526 -270 809 -133 187 90 319 264 366
486 3 18 12 27 25 27 10 0 32 11 47 24 27 23 28 28 27 108 -2 275 -193 549
-460 661 -127 54 -308 71 -440 42z m308 -168 c100 -36 173 -84 242 -159 98
-105 155 -245 156 -378 0 -62 25 -114 60 -125 19 -6 21 -12 16 -43 -4 -21 -26
-77 -51 -127 -86 -176 -237 -301 -422 -349 -77 -20 -230 -21 -308 -1 -217 55
-405 240 -460 453 -21 83 -21 220 0 302 56 216 240 397 455 445 93 21 227 13
312 -18z"/>
<path d="M1133 1303 c-4 -10 -17 -31 -30 -46 -30 -37 -32 -113 -3 -150 11 -14
20 -28 20 -31 0 -3 -79 -6 -176 -6 l-176 0 4 -122 c5 -144 19 -184 111 -308
l55 -75 -89 -3 -89 -3 0 -58 c0 -44 5 -65 21 -85 l20 -26 359 0 c197 0 366 3
375 6 25 10 45 59 45 114 l0 50 -90 0 c-49 0 -90 2 -90 5 0 2 30 45 66 95 49
67 72 90 88 90 33 0 86 39 110 80 16 27 21 57 24 137 l4 103 -174 0 -174 0
-12 28 c-7 15 -20 39 -29 54 -15 24 -16 31 -5 49 12 19 11 24 -12 48 l-27 26
-19 -25 c-27 -34 -27 -109 0 -143 26 -33 25 -37 -10 -37 -19 0 -30 5 -30 14 0
8 -11 28 -25 44 -31 38 -31 57 0 98 14 18 28 47 31 64 6 29 5 30 -30 30 -26 0
-39 -5 -43 -17z m76 -465 c-9 -46 -22 -109 -29 -140 -11 -55 -13 -58 -41 -58
-24 0 -29 4 -25 18 2 9 14 62 25 117 12 55 23 110 26 123 4 16 13 22 34 22
l28 0 -18 -82z"/>
<path d="M2375 1212 c-80 -30 -112 -49 -164 -100 -71 -69 -101 -120 -108 -185
-3 -30 -3 -67 1 -82 6 -25 54 -78 124 -137 41 -34 49 -73 23 -115 -18 -28 -26
-33 -61 -33 -22 0 -40 5 -40 10 0 22 -32 22 -56 0 -46 -44 -26 -88 43 -97 129
-17 262 117 224 223 -12 34 -31 55 -112 129 -61 54 -68 114 -24 182 57 87 222
168 241 118 22 -56 -97 -175 -175 -175 -26 0 -31 -4 -31 -24 0 -30 24 -56 53
-56 67 0 225 132 246 205 16 60 13 91 -12 121 -31 35 -101 42 -172 16z"/>
<path d="M2590 1156 c0 -13 -34 -162 -76 -330 -41 -170 -72 -316 -69 -326 7
-23 56 -28 73 -7 6 6 21 56 35 109 25 97 44 135 101 196 26 28 56 42 56 26 0
-3 -13 -59 -30 -124 -35 -138 -37 -180 -12 -203 25 -22 79 -21 122 2 35 18 36
18 59 0 28 -23 85 -25 124 -4 26 13 31 13 50 0 27 -19 80 -19 117 0 25 13 29
13 34 0 3 -8 18 -15 34 -15 35 0 44 16 72 129 26 103 38 127 90 180 70 71 73
61 30 -109 -36 -141 -36 -150 -10 -178 35 -37 121 -24 160 23 12 15 15 14 35
-11 40 -50 151 -42 212 15 16 16 35 21 73 21 27 0 50 -4 50 -9 0 -4 12 -20 26
-35 31 -31 87 -35 135 -11 27 14 31 14 45 0 21 -20 70 -19 120 4 39 18 41 18
63 0 28 -23 85 -25 125 -4 26 14 31 14 46 0 21 -19 70 -19 113 -2 46 20 103
89 152 187 59 117 122 174 160 146 46 -33 -23 -149 -117 -200 -51 -28 -58 -34
-58 -62 0 -25 5 -33 23 -38 24 -6 47 -43 47 -75 0 -10 -12 -27 -27 -36 -125
-82 -196 -223 -147 -293 23 -33 101 -31 143 4 40 34 95 146 110 226 11 58 17
68 61 106 27 24 52 38 55 32 3 -5 19 -10 34 -10 34 0 42 15 76 143 26 103 45
138 96 181 45 38 63 35 56 -11 -5 -30 -19 -49 -68 -94 l-62 -55 5 -59 c4 -49
10 -63 33 -83 24 -20 36 -23 77 -20 27 3 61 14 76 25 l27 20 18 -23 c22 -29
90 -33 125 -8 13 9 26 14 28 11 8 -8 -16 -87 -25 -87 -20 0 -129 -118 -150
-163 -26 -54 -25 -115 2 -142 20 -19 89 -20 126 -1 42 22 59 55 90 176 l29
109 84 83 c61 60 95 103 123 158 85 165 132 214 178 188 58 -32 -40 -186 -139
-218 -30 -10 -34 -16 -34 -46 0 -24 5 -34 15 -34 24 0 55 -38 55 -67 0 -22
-13 -38 -57 -73 -108 -86 -156 -193 -117 -259 16 -28 23 -31 66 -31 86 0 141
69 182 229 21 83 24 88 93 156 39 39 80 86 92 105 26 44 29 100 4 100 -26 0
-35 -9 -70 -65 -18 -27 -46 -65 -63 -83 l-31 -34 -25 37 c-14 21 -24 38 -22
39 110 72 158 139 158 222 -1 55 -14 78 -54 94 -109 41 -202 -28 -295 -221
-23 -47 -58 -101 -78 -120 -20 -19 -34 -27 -31 -19 3 8 22 85 43 172 43 172
41 188 -16 188 -31 0 -29 4 -65 -145 -25 -107 -81 -195 -124 -195 -16 0 -20 7
-20 35 0 46 33 142 70 209 41 73 40 86 -10 86 l-41 0 -44 -92 c-24 -51 -49
-113 -57 -137 -14 -46 -66 -101 -96 -101 -52 0 -57 64 -7 100 56 40 98 113 99
172 1 38 -3 53 -19 65 -30 22 -97 11 -142 -23 -20 -15 -34 -21 -31 -13 19 52
70 289 65 302 -4 12 -18 17 -44 17 l-38 0 -59 -248 c-33 -136 -68 -264 -78
-284 -10 -20 -40 -60 -66 -89 l-49 -52 -23 38 c-22 36 -22 38 -5 48 40 22 105
91 125 131 48 99 9 186 -85 186 -98 0 -161 -57 -233 -209 -49 -105 -76 -141
-104 -141 -23 0 -23 4 3 102 11 44 19 95 17 112 -3 27 -7 31 -34 34 -40 4 -47
-7 -69 -103 -22 -99 -32 -121 -62 -141 -54 -34 -70 34 -29 121 45 97 99 140
194 154 50 7 65 28 41 58 -10 12 -26 14 -65 10 -122 -13 -241 -120 -280 -253
-8 -29 -27 -63 -44 -79 -26 -25 -30 -26 -36 -10 -4 9 3 62 16 116 27 112 21
132 -34 127 -29 -3 -30 -6 -53 -98 -28 -113 -38 -134 -69 -149 -35 -16 -58 11
-49 57 9 50 51 129 83 159 39 35 101 63 145 63 34 0 37 2 37 30 0 23 -5 31
-26 36 -63 16 -161 -24 -231 -95 -42 -42 -93 -128 -93 -158 0 -13 -38 -43 -55
-43 -7 0 -3 26 11 68 32 92 31 142 -3 182 -24 29 -31 32 -66 27 -50 -7 -94
-48 -108 -101 -16 -58 -7 -137 20 -174 l22 -31 -28 -14 c-35 -18 -52 -12 -64
21 -8 20 4 81 57 294 36 147 63 275 60 284 -7 19 -92 16 -88 -4 1 -6 -26 -122
-59 -257 -45 -181 -69 -257 -90 -290 -28 -45 -53 -64 -66 -51 -4 4 8 67 26
141 20 81 31 145 27 160 -14 54 -98 57 -158 7 -18 -15 -30 -20 -26 -12 3 8 20
76 38 152 38 152 35 168 -24 168 l-31 0 -63 -260 c-65 -264 -92 -333 -140
-359 -33 -17 -34 12 -7 121 29 113 25 131 -29 126 -30 -3 -31 -5 -58 -106 -29
-114 -48 -145 -87 -140 -24 3 -26 7 -25 49 0 45 29 115 62 153 30 32 105 70
152 76 42 5 45 7 45 35 l0 30 -58 -1 c-123 -3 -245 -106 -287 -243 -20 -62
-49 -101 -77 -101 -17 0 -18 -8 17 130 47 185 41 215 -37 215 -35 0 -56 -6
-77 -23 -16 -12 -31 -21 -33 -18 -2 2 12 68 32 146 40 160 39 170 -26 170 -34
0 -39 -3 -39 -24z"/>
</g>
</svg>
